# xmcd
#
# Track frame offsets:
#   150
#   19375
#   38767
#   57310
#   89041
#   104773
#   129437
#   153934
#   174660
#   198026
#   218441
#   237729
#   259197
#   274886
#   291780
#
# Disc length: 4192 seconds
#
# Revision: 0
# Processed by: cddbd v1.5.1PL2 Copyright (c) Steve Scherf et al.
# Submitted via: GXTranscoder 2.0.1939
#
DISCID=df105e0f
DTITLE=Xavier Naidoo - Zwischenspiel - Alles für den Herrn CD1 of 2
DYEAR=2005
DGENRE=Blues
TTITLE0=Wo willst du hin?
TTITLE1=Auf Herz und Nieren
TTITLE2=Wir gehören zusammen
TTITLE3=Abschied nehmen
TTITLE4=Kein Königreich
TTITLE5=Wir haben alles gute vor uns
TTITLE6=Alle Männer müssen kämpfen
TTITLE7=That's the Way Love is
TTITLE8=Brief
TTITLE9=Don't give up
TTITLE10=Gut aufgepasst
TTITLE11=Wenn ich schon Kinder hätte (Rap Version)
TTITLE12=Kleines Lied (Kinderlied)
TTITLE13=Die Dinge singen hör ich so gern
TTITLE14=Keep your Eyes on me
EXTD=
EXTT0=
EXTT1=
EXTT2=
EXTT3=
EXTT4=
EXTT5=
EXTT6=
EXTT7=
EXTT8=
EXTT9=
EXTT10=
EXTT11=
EXTT12=
EXTT13=
EXTT14=
PLAYORDER=
